<svg viewBox="0 0 48 48" width="48" height="48" fill="none" xmlns="http://www.w3.org/2000/svg">
  <g>
    <path 
      d="M27.4128 23.3062C27.2566 22.7021 26.9512 22.1319 26.4726 21.6533C25.994 21.1747 25.4272 20.8726 24.823 20.7165C23.6283 20.411 22.3114 20.7233 21.3814 21.6533C19.9763 23.0584 19.9763 25.3393 21.3814 26.7445C22.7866 28.1496 25.0674 28.1496 26.4726 26.7445C27.4026 25.8145 27.7114 24.4942 27.4128 23.3062Z" 
      fill="#6A5AFF">
    </path>
    <path 
      d="M27.8161 20.3099C28.1894 20.6833 28.8003 20.6833 29.1737 20.3099L37.6454 11.8382C38.0188 11.4649 38.0188 10.854 37.6454 10.4806C37.272 10.1072 36.6611 10.1072 36.2878 10.4806L27.8161 18.9523C27.4427 19.3257 27.4427 19.9366 27.8161 20.3099Z" 
      fill="#6A5AFF">
    </path>
    <path 
      d="M9.41728 11.6577C3.21623 18.8023 3.21962 29.599 9.41727 36.7402C9.72274 37.0932 10.0452 37.4292 10.371 37.7551C10.6969 38.0809 11.0295 38.3999 11.3859 38.7088C18.5271 44.9064 29.3237 44.9098 36.4684 38.7088C43.613 32.5078 45.0928 21.5583 40.0084 13.7519C39.6894 13.2631 39.0004 13.1919 38.5863 13.6059L38.5252 13.667C38.2129 13.9793 38.1756 14.4647 38.4132 14.8312C42.9681 21.8774 41.882 31.5303 35.1379 37.3172C28.3938 43.1042 19.0532 42.8123 12.6451 37.2663C12.3226 36.9846 12.0172 36.6995 11.7185 36.4008C11.4198 36.1021 11.1313 35.8 10.853 35.4742C5.307 29.0661 5.01511 19.7255 10.8021 12.9814C16.589 6.23733 26.2487 5.15121 33.2881 9.70611C33.6546 9.94369 34.14 9.90636 34.4523 9.5941L34.5133 9.53301C34.9274 9.11893 34.8562 8.42992 34.3674 8.11087C26.5643 3.0231 15.6149 4.50293 9.41049 11.6509L9.41728 11.6577Z" 
      fill="#B6AFFF">
    </path>
    <path 
      d="M30.9191 11.5048C25.4104 8.47383 18.3473 9.28502 13.677 13.9553C8.01902 19.6133 8.01902 28.791 13.677 34.449C19.335 40.107 28.5127 40.107 34.1707 34.449C38.841 29.7787 39.6521 22.7155 36.6212 17.2069C36.3293 16.6774 35.603 16.5892 35.1753 17.0168L35.1108 17.0813C34.8257 17.3664 34.7544 17.8042 34.9479 18.1538C37.5648 22.9294 36.8588 29.0523 32.8164 33.0947C27.9153 37.9958 19.9391 37.9958 15.0313 33.0947C10.1268 28.1902 10.1302 20.2107 15.0313 15.3096C19.0702 11.2706 25.1966 10.5612 29.9721 13.1781C30.3217 13.3715 30.7596 13.3003 31.0447 13.0152L31.1092 12.9507C31.5368 12.523 31.4486 11.7967 30.9191 11.5048Z" 
      fill="#958AFF">
    </path>
    <path 
      d="M26.5711 16.7692C26.9004 16.888 27.2669 16.7997 27.5147 16.552L27.586 16.4807C28.0578 16.0089 27.8847 15.1909 27.2533 14.9669C23.7337 13.7077 19.6437 14.5121 16.8674 17.3903C13.3307 21.056 13.2221 26.9685 16.6298 30.7563C16.7486 30.8887 16.8708 31.0109 16.9963 31.1365C17.1219 31.2621 17.2441 31.3842 17.3765 31.503C21.1643 34.9107 27.0803 34.7987 30.7425 31.2655C33.6207 28.4891 34.4251 24.3992 33.1659 20.8795C32.9419 20.2482 32.1239 20.0751 31.6521 20.5468L31.5808 20.6181C31.3331 20.8659 31.2448 21.2325 31.3636 21.5617C32.4667 24.6809 31.5571 28.3601 28.6212 30.5493C25.7871 32.6638 21.7956 32.5892 19.0294 30.3864C18.7884 30.1929 18.5712 29.9893 18.3574 29.7754C18.1469 29.565 17.9399 29.3444 17.7464 29.1034C15.5437 26.3372 15.469 22.3457 17.5835 19.5116C19.7727 16.5757 23.4519 15.6661 26.5711 16.7692Z" 
      fill="#6A5AFF">
    </path>
  </g>
</svg>
