<svg viewBox="0 0 48 48" width="48" height="48" fill="none" xmlns="http://www.w3.org/2000/svg">
  <path 
    d="M5.5 28.7856H10.5V40.9999C10.5 41.5522 10.0523 41.9999 9.5 41.9999H6.5C5.94772 41.9999 5.5 41.5522 5.5 40.9999V28.7856Z" 
    fill="url(#paint0_linear_6574_17622)">
  </path>
  <path 
    d="M5.5 16.5713C5.5 16.019 5.94772 15.5713 6.5 15.5713H9.5C10.0523 15.5713 10.5 16.019 10.5 16.5713V28.7856H5.5V16.5713Z" 
    fill="url(#paint1_linear_6574_17622)">
  </path>
  <path 
    d="M13.5 23.5H18.5V41C18.5 41.5523 18.0523 42 17.5 42H14.5C13.9477 42 13.5 41.5523 13.5 41V23.5Z" 
    fill="url(#paint2_linear_6574_17622)">
  </path>
  <path 
    d="M13.5 6C13.5 5.44772 13.9477 5 14.5 5H17.5C18.0523 5 18.5 5.44772 18.5 6V23.5H13.5V6Z" 
    fill="url(#paint3_linear_6574_17622)">
  </path>
  <path 
    d="M21.5 32.4854H26.5V40.9996C26.5 41.5519 26.0523 41.9996 25.5 41.9996H22.5C21.9477 41.9996 21.5 41.5519 21.5 40.9996V32.4854Z" 
    fill="url(#paint4_linear_6574_17622)">
  </path>
  <path 
    d="M21.5 23.9712C21.5 23.4189 21.9477 22.9712 22.5 22.9712H25.5C26.0523 22.9712 26.5 23.4189 26.5 23.9712V32.4855H21.5V23.9712Z" 
    fill="url(#paint5_linear_6574_17622)">
  </path>
  <path 
    d="M29.5 27.1997H34.5V40.9997C34.5 41.552 34.0523 41.9997 33.5 41.9997H30.5C29.9477 41.9997 29.5 41.552 29.5 40.9997V27.1997Z" 
    fill="url(#paint6_linear_6574_17622)">
  </path>
  <path 
    d="M29.5 13.3999C29.5 12.8476 29.9477 12.3999 30.5 12.3999H33.5C34.0523 12.3999 34.5 12.8476 34.5 13.3999V27.1999H29.5V13.3999Z" 
    fill="url(#paint7_linear_6574_17622)">
  </path>
  <path 
    d="M37.5 31.4282H42.5V40.9997C42.5 41.5519 42.0523 41.9997 41.5 41.9997H38.5C37.9477 41.9997 37.5 41.5519 37.5 40.9997V31.4282Z" 
    fill="url(#paint8_linear_6574_17622)">
  </path>
  <path 
    d="M37.5 21.8569C37.5 21.3046 37.9477 20.8569 38.5 20.8569H41.5C42.0523 20.8569 42.5 21.3046 42.5 21.8569V31.4284H37.5V21.8569Z" 
    fill="url(#paint9_linear_6574_17622)">
  </path>
  <defs>
    <linearGradient id="paint0_linear_6574_17622" x1="8" y1="28.7856" x2="8" y2="41.9999" gradientUnits="userSpaceOnUse">
      <stop stop-color="#5DE0C1"></stop>
      <stop offset="1" stop-color="#50D2B3"></stop>
    </linearGradient>
    <linearGradient id="paint1_linear_6574_17622" x1="8" y1="15.5713" x2="8" y2="28.7856" gradientUnits="userSpaceOnUse">
      <stop stop-color="#1CD6A9"></stop>
      <stop offset="1" stop-color="#17C198"></stop>
    </linearGradient>
    <linearGradient id="paint2_linear_6574_17622" x1="16" y1="23.5" x2="16" y2="42" gradientUnits="userSpaceOnUse">
      <stop stop-color="#5DE0C1"></stop>
      <stop offset="1" stop-color="#50D2B3"></stop>
    </linearGradient>
    <linearGradient id="paint3_linear_6574_17622" x1="16" y1="5" x2="16" y2="23.5" gradientUnits="userSpaceOnUse">
      <stop stop-color="#1CD6A9"></stop>
      <stop offset="1" stop-color="#17C198"></stop>
    </linearGradient>
    <linearGradient id="paint4_linear_6574_17622" x1="24" y1="32.4854" x2="24" y2="41.9996" gradientUnits="userSpaceOnUse">
      <stop stop-color="#5DE0C1"></stop>
      <stop offset="1" stop-color="#50D2B3"></stop>
    </linearGradient>
    <linearGradient id="paint5_linear_6574_17622" x1="24" y1="22.9712" x2="24" y2="32.4855" gradientUnits="userSpaceOnUse">
      <stop stop-color="#1CD6A9"></stop>
      <stop offset="1" stop-color="#17C198"></stop>
    </linearGradient>
    <linearGradient id="paint6_linear_6574_17622" x1="32" y1="27.1997" x2="32" y2="41.9997" gradientUnits="userSpaceOnUse">
      <stop stop-color="#5DE0C1"></stop>
      <stop offset="1" stop-color="#50D2B3"></stop>
    </linearGradient>
    <linearGradient id="paint7_linear_6574_17622" x1="32" y1="12.3999" x2="32" y2="27.1999" gradientUnits="userSpaceOnUse">
      <stop stop-color="#1CD6A9"></stop>
      <stop offset="1" stop-color="#17C198"></stop>
    </linearGradient>
    <linearGradient id="paint8_linear_6574_17622" x1="40" y1="31.4282" x2="40" y2="41.9997" gradientUnits="userSpaceOnUse">
      <stop stop-color="#5DE0C1"></stop>
      <stop offset="1" stop-color="#50D2B3"></stop>
    </linearGradient>
    <linearGradient id="paint9_linear_6574_17622" x1="40" y1="20.8569" x2="40" y2="31.4284" gradientUnits="userSpaceOnUse">
      <stop stop-color="#1CD6A9"></stop>
      <stop offset="1" stop-color="#17C198"></stop>
    </linearGradient>
  </defs>
</svg>
