<svg viewBox="0 0 48 48" width="48" height="48" fill="none" xmlns="http://www.w3.org/2000/svg">
  <path 
    d="M23.2112 26.4421C23.7143 26.2265 24.2838 26.2265 24.7869 26.4421L42.8543 34.1853C43.6625 34.5317 43.6625 35.6773 42.8544 36.0236L25.1808 43.598C24.4261 43.9214 23.5719 43.9214 22.8173 43.598L5.1437 36.0236C4.33559 35.6773 4.33559 34.5317 5.1437 34.1853L23.2112 26.4421Z" 
    fill="#A5C8FF">
  </path>
  <path 
    d="M23.2117 19.074C23.7148 18.8584 24.2843 18.8584 24.7873 19.074L42.8548 26.8172C43.6629 27.1635 43.6629 28.3091 42.8548 28.6555L25.1813 36.2299C24.4266 36.5533 23.5724 36.5533 22.8178 36.2299L5.14419 28.6555C4.33608 28.3091 4.33608 27.1635 5.14418 26.8172L23.2117 19.074Z" 
    fill="#408BFF">
  </path>
  <path 
    d="M22.449 5.08553C22.741 4.4928 23.4414 4.20938 24.0493 4.46837L42.7822 12.4498C43.4163 12.72 43.6945 13.4696 43.3631 14.0739C37.8121 24.1936 28.0248 28.0052 24.9512 28.9863C24.3363 29.1826 23.6793 29.1265 23.0855 28.8735L5.15729 21.2349C4.45522 20.9358 4.5054 19.8485 5.2198 19.5801C9.33869 18.0331 18.1367 13.8393 22.449 5.08553Z" 
    fill="url(#paint0_linear_6574_17615)">
  </path>
  <defs>
    <linearGradient id="paint0_linear_6574_17615" x1="32" y1="9.5" x2="26.5" y2="23" gradientUnits="userSpaceOnUse">
      <stop stop-color="#3E6EFF"></stop>
      <stop offset="1" stop-color="#1257FF"></stop>
    </linearGradient>
  </defs>
</svg>
