<svg viewBox="0 0 48 48" width="48" height="48" fill="none" xmlns="http://www.w3.org/2000/svg">
  <path 
    fill-rule="evenodd" 
    clip-rule="evenodd" 
    d="M38.4178 24.0339C38.4947 24.0597 38.571 24.0852 38.645 24.1155C41.453 25.2819 42.7826 28.4979 41.621 31.3011C40.4546 34.1091 37.2386 35.4387 34.4354 34.2771C34.3475 34.2411 34.2629 34.1985 34.1761 34.1547C34.1586 34.1459 34.1411 34.1371 34.1234 34.1283C34.1762 34.2291 34.229 34.3347 34.2722 34.4403C35.4338 37.2483 34.0994 40.4643 31.2962 41.6259C28.4882 42.7875 25.2722 41.4531 24.1106 38.6499C24.0797 38.5709 24.0537 38.4943 24.0273 38.4168C24.0168 38.3859 24.0063 38.3549 23.9954 38.3235C23.9839 38.3565 23.9728 38.3896 23.9617 38.4226C23.936 38.4996 23.9104 38.5759 23.8802 38.6499C22.7138 41.4579 19.5026 42.7923 16.6946 41.6259C13.8866 40.4595 12.557 37.2435 13.7186 34.4403C13.7545 34.3523 13.7972 34.2678 13.8409 34.181C13.8497 34.1635 13.8585 34.1459 13.8674 34.1283C13.7666 34.1811 13.661 34.2339 13.5554 34.2771C10.7474 35.4387 7.53138 34.1043 6.36978 31.3011C5.20818 28.4931 6.54258 25.2771 9.34578 24.1155C9.42476 24.0846 9.50129 24.0586 9.57888 24.0322C9.60974 24.0217 9.64076 24.0112 9.67218 24.0003C9.63908 23.9887 9.60598 23.9777 9.57302 23.9666C9.49602 23.9408 9.41972 23.9153 9.34578 23.8851C6.53778 22.7187 5.20818 19.5027 6.36978 16.6995C7.53618 13.8915 10.7522 12.5619 13.5554 13.7235C13.6433 13.7594 13.7279 13.802 13.8147 13.8458C13.8321 13.8546 13.8497 13.8634 13.8674 13.8723C13.8146 13.7715 13.7618 13.6659 13.7186 13.5603C12.557 10.7523 13.8866 7.53626 16.6946 6.37466C19.5026 5.21306 22.7186 6.54746 23.8802 9.35066C23.9111 9.42966 23.9371 9.5062 23.9634 9.58381C23.9739 9.61465 23.9845 9.64566 23.9954 9.67706C24.0069 9.64395 24.018 9.61084 24.029 9.57786C24.0548 9.50087 24.0803 9.42459 24.1106 9.35066C25.277 6.54266 28.493 5.21306 31.2962 6.37466C34.1042 7.54106 35.4338 10.7571 34.2722 13.5603C34.2362 13.6482 34.1936 13.7328 34.1499 13.8195C34.1411 13.837 34.1322 13.8546 34.1234 13.8723C34.2242 13.8195 34.3298 13.7667 34.4354 13.7235C37.2434 12.5619 40.4594 13.8963 41.621 16.6995C42.7826 19.5075 41.4482 22.7235 38.645 23.8851C38.566 23.916 38.4894 23.942 38.4118 23.9683C38.381 23.9788 38.35 23.9893 38.3186 24.0003C38.3517 24.0118 38.3848 24.0229 38.4178 24.0339ZM22.7668 22.7186C22.7668 23.6677 21.9974 24.437 21.0484 24.437C20.0994 24.437 19.33 23.6677 19.33 22.7186C19.33 21.7696 20.0994 21.0002 21.0484 21.0002C21.9974 21.0002 22.7668 21.7696 22.7668 22.7186ZM28.674 22.7186C28.674 23.6677 27.9046 24.437 26.9556 24.437C26.0066 24.437 25.2372 23.6677 25.2372 22.7186C25.2372 21.7696 26.0066 21.0002 26.9556 21.0002C27.9046 21.0002 28.674 21.7696 28.674 22.7186Z" 
    fill="url(#paint0_radial_6574_17621)">
  </path>
  <defs>
    <radialGradient 
      id="paint0_radial_6574_17621" 
      cx="0" cy="0" r="1" 
      gradientUnits="userSpaceOnUse" 
      gradientTransform="translate(23.9954 24.0013) rotate(90) scale(18.0467 18.0457)">
      <stop stop-color="#65E700"></stop>
      <stop offset="1" stop-color="#61DC00"></stop>
    </radialGradient>
  </defs>
</svg>
