<svg viewBox="0 0 48 48" width="48" height="48" fill="none" xmlns="http://www.w3.org/2000/svg">
  <path d="M24.0238 22.28C24.8522 22.28 25.5238 21.6084 25.5238 20.78V14.5C25.5238 13.6716 26.1954 13 27.0238 13H39.5C40.3284 13 41 13.6716 41 14.5V40.5C41 41.3284 40.3284 42 39.5 42H17.5C16.6716 42 16 41.3284 16 40.5V23.78C16 22.9516 16.6716 22.28 17.5 22.28H24.0238Z" fill="#1DAEFF"></path>
  <path 
    fill-rule="evenodd" 
    clip-rule="evenodd" 
    d="M9.5 5C8.67157 5 8 5.67157 8 6.5V35.5C8 36.3284 8.67157 37 9.5 37H34.5C35.3284 37 36 36.3284 36 35.5V6.5C36 5.67157 35.3284 5 34.5 5H9.5ZM13 10C12.4477 10 12 10.4477 12 11C12 11.5523 12.4477 12 13 12H23C23.5523 12 24 11.5523 24 11C24 10.4477 23.5523 10 23 10H13ZM12 15C12 14.4477 12.4477 14 13 14H23C23.5523 14 24 14.4477 24 15C24 15.5523 23.5523 16 23 16H13C12.4477 16 12 15.5523 12 15ZM13 18C12.4477 18 12 18.4477 12 19C12 19.5523 12.4477 20 13 20H17C17.5523 20 18 19.5523 18 19C18 18.4477 17.5523 18 17 18H13Z" 
    fill="url(#paint0_linear_6574_17616)"
  ></path>
  <defs>
    <linearGradient id="paint0_linear_6574_17616" x1="22" y1="17" x2="28.5" y2="37" gradientUnits="userSpaceOnUse">
      <stop stop-color="#38CCFF"></stop>
      <stop offset="1" stop-color="#73DBFF"></stop>
    </linearGradient>
  </defs>
</svg>
