<svg viewBox="0 0 48 48" width="48" height="48" fill="none" xmlns="http://www.w3.org/2000/svg">
  <path 
    d="M23.9997 13.4398C26.3856 13.4398 28.3197 11.5057 28.3197 9.1198C28.3197 6.73393 26.3856 4.7998 23.9997 4.7998C21.6138 4.7998 19.6797 6.73393 19.6797 9.1198C19.6797 11.5057 21.6138 13.4398 23.9997 13.4398Z" 
    fill="#FF6917">
  </path>
  <path 
    d="M13.4782 17.7982C15.8641 17.7982 17.7982 15.8641 17.7982 13.4782C17.7982 11.0923 15.8641 9.1582 13.4782 9.1582C11.0923 9.1582 9.1582 11.0923 9.1582 13.4782C9.1582 15.8641 11.0923 17.7982 13.4782 17.7982Z" 
    fill="#FF7814">
  </path>
  <path 
    d="M9.1198 28.3197C11.5057 28.3197 13.4398 26.3856 13.4398 23.9997C13.4398 21.6138 11.5057 19.6797 9.1198 19.6797C6.73393 19.6797 4.7998 21.6138 4.7998 23.9997C4.7998 26.3856 6.73393 28.3197 9.1198 28.3197Z" 
    fill="#FF8111">
  </path>
  <path 
    d="M13.4782 38.8412C15.8641 38.8412 17.7982 36.907 17.7982 34.5212C17.7982 32.1353 15.8641 30.2012 13.4782 30.2012C11.0923 30.2012 9.1582 32.1353 9.1582 34.5212C9.1582 36.907 11.0923 38.8412 13.4782 38.8412Z" 
    fill="#FF8C0E">
  </path>
  <path 
    d="M34.5215 14.9181C35.3168 14.9181 35.9615 14.2734 35.9615 13.4781C35.9615 12.6828 35.3168 12.0381 34.5215 12.0381C33.7263 12.0381 33.0815 12.6828 33.0815 13.4781C33.0815 14.2734 33.7263 14.9181 34.5215 14.9181Z" 
    fill="#FFB404">
  </path>
  <path 
    d="M38.8797 26.1598C40.0727 26.1598 41.0397 25.1928 41.0397 23.9998C41.0397 22.8069 40.0727 21.8398 38.8797 21.8398C37.6868 21.8398 36.7197 22.8069 36.7197 23.9998C36.7197 25.1928 37.6868 26.1598 38.8797 26.1598Z" 
    fill="#FFA907">
  </path>
  <path 
    d="M34.5216 37.4016C36.1122 37.4016 37.4016 36.1122 37.4016 34.5216C37.4016 32.931 36.1122 31.6416 34.5216 31.6416C32.931 31.6416 31.6416 32.931 31.6416 34.5216C31.6416 36.1122 32.931 37.4016 34.5216 37.4016Z" 
    fill="#FF9F0A">
  </path>
  <path 
    d="M23.9999 42.4798C25.9881 42.4798 27.5999 40.868 27.5999 38.8798C27.5999 36.8916 25.9881 35.2798 23.9999 35.2798C22.0117 35.2798 20.3999 36.8916 20.3999 38.8798C20.3999 40.868 22.0117 42.4798 23.9999 42.4798Z" 
    fill="#FF960C">
  </path>
</svg>
