<svg width="48" height="48" viewBox="0 0 48 48" fill="none" xmlns="http://www.w3.org/2000/svg">
  <g clip-path="url(#clip0_12108_10822)">
    <circle cx="18" cy="24" r="16" fill="#B6AFFF"></circle>
    <circle cx="24" cy="24" r="16" fill="#958AFF"></circle>
    <circle cx="30" cy="24" r="16" fill="#6A5AFF"></circle>
    <path 
      d="M26.7 32C26.0373 32 25.5 31.4627 25.5 30.8V19C25.5 17.8954 26.3954 17 27.5 17L30.1489 17C33.6934 17 36.0711 18.8854 36.06 21.6823C36.0711 24.5 33.6934 26.3854 30.1489 26.3854H27.9V30.8C27.9 31.4627 27.3627 32 26.7 32ZM27.9 24.3135H30.1711C32.3489 24.3239 33.6267 23.3294 33.6378 21.6823C33.6267 20.0352 32.3489 19.0615 30.1711 19.0718H27.9V24.3135Z" 
      fill="white">
    </path>
  </g>
  <defs>
    <clipPath id="clip0_12108_10822">
      <rect width="48" height="48" fill="white"></rect>
    </clipPath>
  </defs>
</svg>
