<svg width="48" height="48" viewBox="0 0 48 48" fill="none" xmlns="http://www.w3.org/2000/svg">
  <g clip-path="url(#clip0_13611_6594)">
    <path 
      d="M42.0346 27.0615C43.099 27.0615 43.8069 25.9678 43.3724 24.9962L38.2603 13.6051C35.8581 7.90719 30.1895 3.92301 23.598 4.00113C15.0291 4.10366 8.03723 11.242 8.09582 19.8109C8.12024 23.0627 9.13581 26.0801 10.8496 28.58C15.2146 34.7174 15.8396 35.2886 15.8396 39.8783V41.8313C15.8396 42.6418 16.4938 43.2961 17.3044 43.2961H30.4385C31.249 43.2961 31.9032 42.6418 31.9032 41.8313V39.2386C31.9032 38.4281 32.5575 37.7739 33.368 37.7739H37.2838C38.0943 37.7739 38.7486 37.1196 38.7486 36.3091V28.5263C38.7486 27.7158 39.4029 27.0615 40.2134 27.0615H42.0297H42.0346Z" 
      fill="url(#paint0_linear_13611_6594)">
    </path>
    <path 
      fill-rule="evenodd" 
      clip-rule="evenodd" 
      d="M33.1169 24.9976C33.5515 25.9693 32.8435 27.0631 31.7789 27.0631H31.7741H29.9576C29.147 27.0631 28.4927 27.7174 28.4927 28.528V36.3116C28.4927 37.1222 27.8383 37.7765 27.0277 37.7765H23.1115C22.3009 37.7765 21.6466 38.4309 21.6466 39.2415V41.8344C21.6466 42.6117 21.0449 43.2453 20.2806 43.296H17.3044C16.4938 43.296 15.8396 42.6418 15.8396 41.8312V39.8782C15.8396 35.5742 15.29 34.804 11.6218 29.6634C11.3784 29.3223 11.1212 28.9619 10.8496 28.5799C9.13581 26.0801 8.12024 23.0626 8.09582 19.8108C8.04897 12.9581 12.5113 7.02021 18.6834 4.86426C22.8911 6.32547 26.2846 9.52633 28.0043 13.6054L33.1169 24.9976Z" 
      fill="url(#paint1_linear_13611_6594)">
    </path>
  </g>
  <defs>
    <linearGradient id="paint0_linear_13611_6594" x1="25.7989" y1="4" x2="25.7989" y2="43.2961" gradientUnits="userSpaceOnUse">
      <stop offset="0.365" stop-color="#6A5AFF"></stop>
      <stop offset="1" stop-color="#7D6FFF"></stop>
    </linearGradient>
    <linearGradient id="paint1_linear_13611_6594" x1="14.7035" y1="7" x2="14.7035" y2="43.5" gradientUnits="userSpaceOnUse">
      <stop offset="0.365" stop-color="#B5ADFF"></stop>
      <stop offset="1" stop-color="#7B6DFF"></stop>
    </linearGradient>
    <clipPath id="clip0_13611_6594">
      <rect width="48" height="48" fill="white"></rect>
    </clipPath>
  </defs>
</svg>
