<svg xmlns="http://www.w3.org/2000/svg"  xmlns:xlink="http://www.w3.org/1999/xlink"  class="SvgIcon_SvgIcon__root__svg__ohdSc" viewBox="0 0 25 25" width="24" height="24"><path fill-rule="evenodd" clip-rule="evenodd" d="M6.84497 4.75C6.84497 4.05964 6.28533 3.5 5.59497 3.5C4.90461 3.5 4.34497 4.05964 4.34497 4.75V20.2517C4.34497 20.9421 4.90461 21.5017 5.59497 21.5017C6.28533 21.5017 6.84497 20.9421 6.84497 20.2517V16.5422C8.88888 14.8384 10.9866 15.6047 13.0958 16.3752C15.2536 17.1635 17.4234 17.9561 19.5597 16.1125C20.4124 15.3789 20.8926 14.1879 20.8926 12.9516V5.90811C20.8926 5.07649 20.0233 4.72488 19.3776 5.23661C17.0791 7.05816 14.9377 6.2441 12.8463 5.44902C10.8315 4.68308 8.86309 3.93475 6.84497 5.57715V4.75Z"></path></svg>