<svg xmlns="http://www.w3.org/2000/svg"  xmlns:xlink="http://www.w3.org/1999/xlink"  class="SvgIcon_SvgIcon__root__svg__ohdSc" viewBox="0 0 20 20" width="20" height="20"><path fill-rule="evenodd" clip-rule="evenodd" d="M2.45837 5C2.45837 4.51675 2.85012 4.125 3.33337 4.125H16.6667C17.15 4.125 17.5417 4.51675 17.5417 5C17.5417 5.48325 17.15 5.875 16.6667 5.875H3.33337C2.85012 5.875 2.45837 5.48325 2.45837 5ZM2.45837 15C2.45837 14.5168 2.85012 14.125 3.33337 14.125H11.6667C12.15 14.125 12.5417 14.5168 12.5417 15C12.5417 15.4832 12.15 15.875 11.6667 15.875H3.33337C2.85012 15.875 2.45837 15.4832 2.45837 15ZM3.33337 9.125C2.85012 9.125 2.45837 9.51675 2.45837 10C2.45837 10.4832 2.85012 10.875 3.33337 10.875H16.6667C17.15 10.875 17.5417 10.4832 17.5417 10C17.5417 9.51675 17.15 9.125 16.6667 9.125H3.33337Z"></path><path d="M2.60413 5.00004C2.60413 4.59733 2.93059 4.27087 3.33329 4.27087H16.6666C17.0693 4.27087 17.3958 4.59733 17.3958 5.00004C17.3958 5.40275 17.0693 5.72921 16.6666 5.72921H3.33329C2.93059 5.72921 2.60413 5.40275 2.60413 5.00004Z"></path><path d="M2.60413 15C2.60413 14.5973 2.93059 14.2709 3.33329 14.2709H11.6666C12.0693 14.2709 12.3958 14.5973 12.3958 15C12.3958 15.4027 12.0693 15.7292 11.6666 15.7292H3.33329C2.93059 15.7292 2.60413 15.4027 2.60413 15Z"></path><path d="M3.33329 9.27087C2.93059 9.27087 2.60413 9.59733 2.60413 10C2.60413 10.4027 2.93059 10.7292 3.33329 10.7292H16.6666C17.0693 10.7292 17.3958 10.4027 17.3958 10C17.3958 9.59733 17.0693 9.27087 16.6666 9.27087H3.33329Z"></path></svg>