<svg xmlns="http://www.w3.org/2000/svg"  xmlns:xlink="http://www.w3.org/1999/xlink"  width="116" height="116" viewBox="0 0 116 116" fill="none" class="ZendeskWidget_icon__open__TYpRA"><g clip-path="url(#clip0_10778_10645)"><path fill-rule="evenodd" clip-rule="evenodd" d="M57.6002 64C61.1348 64 64.0002 61.1346 64.0002 57.6C64.0002 54.0654 61.1348 51.2 57.6002 51.2C54.0656 51.2 51.2002 54.0654 51.2002 57.6C51.2002 61.1346 54.0656 64 57.6002 64ZM35.2 64.0002C38.7346 64.0002 41.6 61.1348 41.6 57.6002C41.6 54.0656 38.7346 51.2002 35.2 51.2002C31.6654 51.2002 28.8 54.0656 28.8 57.6002C28.8 61.1348 31.6654 64.0002 35.2 64.0002ZM86.4002 57.6C86.4002 61.1346 83.5348 64 80.0002 64C76.4656 64 73.6002 61.1346 73.6002 57.6C73.6002 54.0654 76.4656 51.2 80.0002 51.2C83.5348 51.2 86.4002 54.0654 86.4002 57.6ZM81.9016 95.1499C74.9051 99.6867 66.5608 102.321 57.6011 102.321C32.9012 102.321 12.8779 82.2981 12.8779 57.5982C12.8779 32.8983 32.9012 12.875 57.6011 12.875C82.3011 12.875 102.324 32.8983 102.324 57.5982C102.324 66.5649 99.6856 74.9152 95.1422 81.915L102.106 98.7745C102.976 100.874 100.864 102.986 98.7651 102.115L81.9016 95.1499Z" fill="white"></path></g><defs><clipPath id="clip0_10778_10645"><rect width="115.2" height="115.2" fill="white"></rect></clipPath></defs></svg>