<svg xmlns="http://www.w3.org/2000/svg"  xmlns:xlink="http://www.w3.org/1999/xlink"  class="SvgIcon_SvgIcon__root__svg__ohdSc" viewBox="0 0 25 25" width="24" height="24"><path fill-rule="evenodd" clip-rule="evenodd" d="M22.125 12.5C22.125 18.0228 17.6478 22.5 12.125 22.5C6.60215 22.5 2.125 18.0228 2.125 12.5C2.125 6.97715 6.60215 2.5 12.125 2.5C17.6478 2.5 22.125 6.97715 22.125 12.5ZM12.1249 12.5001C13.9658 12.5001 15.4582 11.0077 15.4582 9.16678C15.4582 7.32583 13.9658 5.83345 12.1249 5.83345C10.2839 5.83345 8.79155 7.32583 8.79155 9.16678C8.79155 11.0077 10.2839 12.5001 12.1249 12.5001ZM12.1251 14.1666C9.40006 14.1666 6.99172 15.4791 5.47089 17.4999C6.99172 19.5207 9.40422 20.8332 12.1251 20.8332C14.8459 20.8332 17.2584 19.5207 18.7792 17.4999C17.2584 15.4791 14.8459 14.1666 12.1251 14.1666Z"></path></svg>