<svg xmlns="http://www.w3.org/2000/svg"  xmlns:xlink="http://www.w3.org/1999/xlink"  class="SvgIcon_SvgIcon__root__svg__ohdSc" viewBox="0 0 25 25" width="24" height="24"><path fill-rule="evenodd" clip-rule="evenodd" d="M11.7302 3.04999C9.79723 3.04999 8.23022 4.61699 8.23022 6.54999V6.6547H7.025C5.2853 6.6547 3.875 8.06459 3.875 9.80378V18.8012C3.875 20.5404 5.2853 21.9503 7.025 21.9503H18.725C20.4647 21.9503 21.875 20.5404 21.875 18.8012V9.80378C21.875 8.06459 20.4647 6.6547 18.725 6.6547H17.4302V6.54999C17.4302 4.61699 15.8632 3.04999 13.9302 3.04999H11.7302ZM15.4302 6.6547V6.54999C15.4302 5.72156 14.7587 5.04999 13.9302 5.04999H11.7302C10.9018 5.04999 10.2302 5.72156 10.2302 6.54999V6.6547H15.4302Z"></path></svg>