<svg xmlns="http://www.w3.org/2000/svg"  xmlns:xlink="http://www.w3.org/1999/xlink"  class="SvgIcon_SvgIcon__root__svg__ohdSc" viewBox="0 0 25 25" width="24" height="24"><path fill-rule="evenodd" clip-rule="evenodd" d="M19.4876 7.63979C19.4876 9.5672 17.9246 11.1297 15.9965 11.1297C14.0685 11.1297 12.5054 9.5672 12.5054 7.63979C12.5054 5.71238 14.0685 4.1499 15.9965 4.1499C17.9246 4.1499 19.4876 5.71238 19.4876 7.63979ZM11.0156 9.01281C11.0156 10.7398 9.61512 12.1397 7.88756 12.1397C6.15999 12.1397 4.75952 10.7398 4.75952 9.01281C4.75952 7.28585 6.15999 5.88587 7.88756 5.88587C9.61512 5.88587 11.0156 7.28585 11.0156 9.01281ZM8.92124 13.7676C8.94917 13.7443 8.9771 13.7211 9.00037 13.7025C8.64195 13.6652 8.26956 13.6373 7.88321 13.6373C3.14461 13.6373 0.375 16.5828 0.375 19.3747C0.375 20.2588 0.966161 20.8451 1.84592 20.8451H6.659C6.37505 20.3798 6.21679 19.8214 6.21679 19.2025C6.21679 17.197 7.19896 15.2147 8.91658 13.7629L8.92124 13.7676ZM10.8854 14.0886C12.2259 13.2976 13.9436 12.7997 15.9963 12.7997V12.8044C21.2842 12.8044 24.375 16.0849 24.375 19.2071C24.375 20.1936 23.7187 20.8497 22.7319 20.8497H9.26083C8.274 20.8497 7.61768 20.1936 7.61768 19.2071C7.61768 17.2993 8.77672 15.331 10.8854 14.0886Z"></path></svg>